<svg width="35" height="22" viewBox="0 0 35 22" fill="none" xmlns="http://www.w3.org/2000/svg">
<path fill-rule="evenodd" clip-rule="evenodd" d="M0 1.70312C0 1.268 0.172851 0.850705 0.480528 0.543028C0.788205 0.235351 1.2055 0.0625 1.64062 0.0625H33.3594C33.7945 0.0625 34.2118 0.235351 34.5195 0.543028C34.8271 0.850705 35 1.268 35 1.70312C35 2.13825 34.8271 2.55555 34.5195 2.86322C34.2118 3.1709 33.7945 3.34375 33.3594 3.34375H1.64062C1.2055 3.34375 0.788205 3.1709 0.480528 2.86322C0.172851 2.55555 0 2.13825 0 1.70312ZM0 11C0 10.5649 0.172851 10.1476 0.480528 9.8399C0.788205 9.53223 1.2055 9.35938 1.64062 9.35938H33.3594C33.7945 9.35938 34.2118 9.53223 34.5195 9.8399C34.8271 10.1476 35 10.5649 35 11C35 11.4351 34.8271 11.8524 34.5195 12.1601C34.2118 12.4678 33.7945 12.6406 33.3594 12.6406H1.64062C1.2055 12.6406 0.788205 12.4678 0.480528 12.1601C0.172851 11.8524 0 11.4351 0 11ZM1.64062 18.6562C1.2055 18.6562 0.788205 18.8291 0.480528 19.1368C0.172851 19.4445 0 19.8618 0 20.2969C0 20.732 0.172851 21.1493 0.480528 21.457C0.788205 21.7646 1.2055 21.9375 1.64062 21.9375H33.3594C33.7945 21.9375 34.2118 21.7646 34.5195 21.457C34.8271 21.1493 35 20.732 35 20.2969C35 19.8618 34.8271 19.4445 34.5195 19.1368C34.2118 18.8291 33.7945 18.6562 33.3594 18.6562H1.64062Z" fill="#2F80EC"/>
</svg>
