<svg width="28" height="28" viewBox="0 0 28 28" fill="none" xmlns="http://www.w3.org/2000/svg">
<path d="M1.32031 27.408H26.6703C26.8692 27.408 27.06 27.3289 27.2006 27.1883C27.3413 27.0476 27.4203 26.8569 27.4203 26.658C27.4203 26.459 27.3413 26.2683 27.2006 26.1276C27.06 25.987 26.8692 25.908 26.6703 25.908H1.32031C1.1214 25.908 0.930634 25.987 0.789982 26.1276C0.64933 26.2683 0.570312 26.459 0.570312 26.658C0.570312 26.8569 0.64933 27.0476 0.789982 27.1883C0.930634 27.3289 1.1214 27.408 1.32031 27.408ZM10.5633 21.771C11.1966 21.5928 11.7745 21.2574 12.2433 20.796L26.5533 6.48596C27.0434 5.99398 27.3185 5.32786 27.3185 4.63346C27.3185 3.93906 27.0434 3.27294 26.5533 2.78096L25.1433 1.38596C24.644 0.910026 23.9806 0.644531 23.2908 0.644531C22.601 0.644531 21.9376 0.910026 21.4383 1.38596L7.12831 15.681C6.66686 16.1473 6.33584 16.7266 6.16831 17.361L5.05831 21.501C5.00612 21.6901 5.005 21.8897 5.05507 22.0794C5.10513 22.2691 5.20459 22.4422 5.34331 22.581C5.55589 22.7893 5.84069 22.9075 6.13831 22.911L10.5633 21.771ZM11.1783 19.731C10.9017 20.0124 10.5546 20.2144 10.1733 20.316L8.71831 20.706L7.21831 19.206L7.60831 17.751C7.71188 17.3705 7.91362 17.0239 8.19331 16.746L8.76331 16.191L11.7483 19.176L11.1783 19.731ZM12.8133 18.111L9.82831 15.126L19.9233 5.03096L22.9083 8.01596L12.8133 18.111ZM25.4883 5.43596L23.9733 6.95096L20.9883 3.96596L22.5033 2.43596C22.7143 2.22528 23.0002 2.10695 23.2983 2.10695C23.5964 2.10695 23.8824 2.22528 24.0933 2.43596L25.4883 3.84596C25.6975 4.05767 25.8149 4.34331 25.8149 4.64096C25.8149 4.93861 25.6975 5.22425 25.4883 5.43596Z" fill="#2F80EC"/>
</svg>
