<svg width="18" height="19" viewBox="0 0 18 19" fill="none" xmlns="http://www.w3.org/2000/svg">
<path d="M6.75 2C6.6837 2 6.62011 2.02634 6.57322 2.07322C6.52634 2.12011 6.5 2.1837 6.5 2.25V6.25C6.5 6.44891 6.42098 6.63968 6.28033 6.78033C6.13968 6.92098 5.94891 7 5.75 7H1.75C1.6837 7 1.62011 7.02634 1.57322 7.07322C1.52634 7.12011 1.5 7.1837 1.5 7.25V11.75C1.5 11.888 1.612 12 1.75 12H5.75C5.94891 12 6.13968 12.079 6.28033 12.2197C6.42098 12.3603 6.5 12.5511 6.5 12.75V16.75C6.5 16.888 6.612 17 6.75 17H11.25C11.3163 17 11.3799 16.9737 11.4268 16.9268C11.4737 16.8799 11.5 16.8163 11.5 16.75V12.75C11.5 12.5511 11.579 12.3603 11.7197 12.2197C11.8603 12.079 12.0511 12 12.25 12H16.25C16.3163 12 16.3799 11.9737 16.4268 11.9268C16.4737 11.8799 16.5 11.8163 16.5 11.75V7.25C16.5 7.1837 16.4737 7.12011 16.4268 7.07322C16.3799 7.02634 16.3163 7 16.25 7H12.25C12.0511 7 11.8603 6.92098 11.7197 6.78033C11.579 6.63968 11.5 6.44891 11.5 6.25V2.25C11.5 2.1837 11.4737 2.12011 11.4268 2.07322C11.3799 2.02634 11.3163 2 11.25 2H6.75ZM5 2.25C5 1.284 5.784 0.5 6.75 0.5H11.25C12.216 0.5 13 1.284 13 2.25V5.5H16.25C17.216 5.5 18 6.284 18 7.25V11.75C18 12.2141 17.8156 12.6592 17.4874 12.9874C17.1592 13.3156 16.7141 13.5 16.25 13.5H13V16.75C13 17.2141 12.8156 17.6592 12.4874 17.9874C12.1592 18.3156 11.7141 18.5 11.25 18.5H6.75C6.28587 18.5 5.84075 18.3156 5.51256 17.9874C5.18437 17.6592 5 17.2141 5 16.75V13.5H1.75C1.28587 13.5 0.840752 13.3156 0.512563 12.9874C0.184375 12.6592 0 12.2141 0 11.75V7.25C0 6.284 0.784 5.5 1.75 5.5H5V2.25Z" fill="black"/>
</svg>
