<svg width="17" height="21" viewBox="0 0 17 21" fill="none" xmlns="http://www.w3.org/2000/svg">
<path d="M5.75 20.25H1.25V0.75H14.75V9M3.5 5.25H12.5M3.5 8.25H9.5M11.75 12.75V15.75L14 18M16.25 15.75C16.25 16.9435 15.7759 18.0881 14.932 18.932C14.0881 19.7759 12.9435 20.25 11.75 20.25C10.5565 20.25 9.41193 19.7759 8.56802 18.932C7.72411 18.0881 7.25 16.9435 7.25 15.75C7.25 14.5565 7.72411 13.4119 8.56802 12.568C9.41193 11.7241 10.5565 11.25 11.75 11.25C12.9435 11.25 14.0881 11.7241 14.932 12.568C15.7759 13.4119 16.25 14.5565 16.25 15.75Z" stroke="black" stroke-linejoin="round"/>
</svg>
