<svg width="25" height="24" viewBox="0 0 25 24" fill="none" xmlns="http://www.w3.org/2000/svg">
<path d="M8.25 2H16.25M9.25 2V4.789C9.24998 5.57879 9.01616 6.3509 8.578 7.008L7.922 7.992C7.48366 8.64939 7.24982 9.42187 7.25 10.212V20C7.25 20.5304 7.46071 21.0391 7.83579 21.4142C8.21086 21.7893 8.71957 22 9.25 22H15.25C15.7804 22 16.2891 21.7893 16.6642 21.4142C17.0393 21.0391 17.25 20.5304 17.25 20V10.211C17.25 9.42121 17.0162 8.6491 16.578 7.992L15.922 7.008C15.4837 6.35061 15.2498 5.57813 15.25 4.788V2M7.25 15C8.04177 14.6684 8.8916 14.4977 9.75 14.4977C10.6084 14.4977 11.4582 14.6684 12.25 15C13.0417 15.3317 13.8916 15.5025 14.75 15.5025C15.6084 15.5025 16.4583 15.3317 17.25 15" stroke="#FCCF1B" stroke-width="2" stroke-linecap="round" stroke-linejoin="round"/>
</svg>
