<svg width="25" height="24" viewBox="0 0 25 24" fill="none" xmlns="http://www.w3.org/2000/svg">
<path d="M13.9 2.00015H6.5C5.96957 2.00015 5.46086 2.21086 5.08579 2.58594C4.71071 2.96101 4.5 3.46972 4.5 4.00015V20.0001C4.5 20.5306 4.71071 21.0393 5.08579 21.4144C5.46086 21.7894 5.96957 22.0001 6.5 22.0001H18.5C19.0304 22.0001 19.5391 21.7894 19.9142 21.4144C20.2893 21.0393 20.5 20.5306 20.5 20.0001V12.6001M2.5 6.00015H6.5M2.5 10.0001H6.5M2.5 14.0001H6.5M2.5 18.0001H6.5M21.878 5.62615C22.2764 5.22779 22.5001 4.68751 22.5001 4.12415C22.5001 3.56079 22.2764 3.0205 21.878 2.62215C21.4796 2.22379 20.9394 2 20.376 2C19.8126 2 19.2724 2.22379 18.874 2.62215L13.864 7.63415C13.6262 7.87177 13.4522 8.16548 13.358 8.48815L12.521 11.3581C12.4959 11.4442 12.4944 11.5354 12.5166 11.6222C12.5389 11.7091 12.5841 11.7883 12.6474 11.8517C12.7108 11.9151 12.7901 11.9603 12.8769 11.9825C12.9637 12.0048 13.055 12.0032 13.141 11.9781L16.011 11.1411C16.3337 11.0469 16.6274 10.8729 16.865 10.6351L21.878 5.62615Z" stroke="#2F80EC" stroke-width="2" stroke-linecap="round" stroke-linejoin="round"/>
</svg>
