<svg width="20" height="21" viewBox="0 0 20 21" fill="none" xmlns="http://www.w3.org/2000/svg">
<path d="M8.325 2.817C8.751 1.061 11.249 1.061 11.675 2.817C11.7389 3.0808 11.8642 3.32578 12.0407 3.532C12.2172 3.73822 12.4399 3.89985 12.6907 4.00375C12.9414 4.10764 13.2132 4.15085 13.4838 4.12987C13.7544 4.10889 14.0162 4.0243 14.248 3.883C15.791 2.943 17.558 4.709 16.618 6.253C16.4769 6.48466 16.3924 6.74634 16.3715 7.01677C16.3506 7.28721 16.3938 7.55877 16.4975 7.80938C16.6013 8.05999 16.7627 8.28258 16.9687 8.45905C17.1747 8.63553 17.4194 8.76091 17.683 8.825C19.439 9.251 19.439 11.749 17.683 12.175C17.4192 12.2389 17.1742 12.3642 16.968 12.5407C16.7618 12.7172 16.6001 12.9399 16.4963 13.1907C16.3924 13.4414 16.3491 13.7132 16.3701 13.9838C16.3911 14.2544 16.4757 14.5162 16.617 14.748C17.557 16.291 15.791 18.058 14.247 17.118C14.0153 16.9769 13.7537 16.8924 13.4832 16.8715C13.2128 16.8506 12.9412 16.8938 12.6906 16.9975C12.44 17.1013 12.2174 17.2627 12.0409 17.4687C11.8645 17.6747 11.7391 17.9194 11.675 18.183C11.249 19.939 8.751 19.939 8.325 18.183C8.26108 17.9192 8.13578 17.6742 7.95929 17.468C7.7828 17.2618 7.56011 17.1001 7.30935 16.9963C7.05859 16.8924 6.78683 16.8491 6.51621 16.8701C6.24559 16.8911 5.98375 16.9757 5.752 17.117C4.209 18.057 2.442 16.291 3.382 14.747C3.5231 14.5153 3.60755 14.2537 3.62848 13.9832C3.64942 13.7128 3.60624 13.4412 3.50247 13.1906C3.3987 12.94 3.23726 12.7174 3.03127 12.5409C2.82529 12.3645 2.58056 12.2391 2.317 12.175C0.561 11.749 0.561 9.251 2.317 8.825C2.5808 8.76108 2.82578 8.63578 3.032 8.45929C3.23822 8.2828 3.39985 8.06011 3.50375 7.80935C3.60764 7.55859 3.65085 7.28683 3.62987 7.01621C3.60889 6.74559 3.5243 6.48375 3.383 6.252C2.443 4.709 4.209 2.942 5.753 3.882C6.753 4.49 8.049 3.952 8.325 2.817Z" stroke="black" stroke-width="2" stroke-linecap="round" stroke-linejoin="round"/>
<path d="M7 10.5C7 11.2956 7.31607 12.0587 7.87868 12.6213C8.44129 13.1839 9.20435 13.5 10 13.5C10.7956 13.5 11.5587 13.1839 12.1213 12.6213C12.6839 12.0587 13 11.2956 13 10.5C13 9.70435 12.6839 8.94129 12.1213 8.37868C11.5587 7.81607 10.7956 7.5 10 7.5C9.20435 7.5 8.44129 7.81607 7.87868 8.37868C7.31607 8.94129 7 9.70435 7 10.5Z" stroke="black" stroke-width="2" stroke-linecap="round" stroke-linejoin="round"/>
</svg>
