<svg width="25" height="24" viewBox="0 0 25 24" fill="none" xmlns="http://www.w3.org/2000/svg">
<path d="M11.75 2V4M5.75 2V4M5.75 3H4.75C4.21957 3 3.71086 3.21071 3.33579 3.58579C2.96071 3.96086 2.75 4.46957 2.75 5V9C2.75 10.5913 3.38214 12.1174 4.50736 13.2426C5.63258 14.3679 7.1587 15 8.75 15M8.75 15C10.3413 15 11.8674 14.3679 12.9926 13.2426C14.1179 12.1174 14.75 10.5913 14.75 9V5C14.75 4.46957 14.5393 3.96086 14.1642 3.58579C13.7891 3.21071 13.2804 3 12.75 3H11.75M8.75 15C8.75 16.5913 9.38214 18.1174 10.5074 19.2426C11.6326 20.3679 13.1587 21 14.75 21C16.3413 21 17.8674 20.3679 18.9926 19.2426C20.1179 18.1174 20.75 16.5913 20.75 15V12M20.75 12C21.8546 12 22.75 11.1046 22.75 10C22.75 8.89543 21.8546 8 20.75 8C19.6454 8 18.75 8.89543 18.75 10C18.75 11.1046 19.6454 12 20.75 12Z" stroke="#2F80EC" stroke-width="2" stroke-linecap="round" stroke-linejoin="round"/>
</svg>
