<svg width="80" height="80" viewBox="0 0 80 80" fill="none" xmlns="http://www.w3.org/2000/svg">
<rect width="80" height="80" rx="40" fill="#60F311"/>
<path fill-rule="evenodd" clip-rule="evenodd" d="M15.625 22.5C15.625 20.6766 16.3493 18.928 17.6386 17.6386C18.928 16.3493 20.6766 15.625 22.5 15.625H57.5C59.3234 15.625 61.072 16.3493 62.3614 17.6386C63.6507 18.928 64.375 20.6766 64.375 22.5V47.5C64.375 49.3234 63.6507 51.072 62.3614 52.3614C61.072 53.6507 59.3234 54.375 57.5 54.375H29.9025C28.9525 54.375 28.055 54.8075 27.4625 55.55L21.6375 62.8325C19.6425 65.3225 15.625 63.915 15.625 60.725V22.5ZM25.625 40C25.625 39.5027 25.8225 39.0258 26.1742 38.6742C26.5258 38.3225 27.0027 38.125 27.5 38.125H52.5C52.9973 38.125 53.4742 38.3225 53.8258 38.6742C54.1775 39.0258 54.375 39.5027 54.375 40C54.375 40.4973 54.1775 40.9742 53.8258 41.3258C53.4742 41.6775 52.9973 41.875 52.5 41.875H27.5C27.0027 41.875 26.5258 41.6775 26.1742 41.3258C25.8225 40.9742 25.625 40.4973 25.625 40ZM27.5 28.125C27.0027 28.125 26.5258 28.3225 26.1742 28.6742C25.8225 29.0258 25.625 29.5027 25.625 30C25.625 30.4973 25.8225 30.9742 26.1742 31.3258C26.5258 31.6775 27.0027 31.875 27.5 31.875H42.5C42.9973 31.875 43.4742 31.6775 43.8258 31.3258C44.1775 30.9742 44.375 30.4973 44.375 30C44.375 29.5027 44.1775 29.0258 43.8258 28.6742C43.4742 28.3225 42.9973 28.125 42.5 28.125H27.5Z" fill="white"/>
</svg>
