<svg width="35" height="36" viewBox="0 0 35 36" fill="none" xmlns="http://www.w3.org/2000/svg">
<g clip-path="url(#clip0_267_3314)">
<path d="M8.16666 0.510742V12.1774M26.8333 0.510742V12.1774M6.99999 18.0107H14M28 18.0107H21M6.99999 25.0107H14M21 25.0107H28M3.49999 6.34408H31.5C32.1188 6.34408 32.7123 6.58991 33.1499 7.02749C33.5875 7.46508 33.8333 8.05857 33.8333 8.67741V32.0107C33.8333 32.6296 33.5875 33.2231 33.1499 33.6607C32.7123 34.0982 32.1188 34.3441 31.5 34.3441H3.49999C2.88115 34.3441 2.28766 34.0982 1.85007 33.6607C1.41249 33.2231 1.16666 32.6296 1.16666 32.0107V8.67741C1.16666 8.05857 1.41249 7.46508 1.85007 7.02749C2.28766 6.58991 2.88115 6.34408 3.49999 6.34408Z" stroke="black"/>
</g>
<defs>
<clipPath id="clip0_267_3314">
<rect width="35" height="35" fill="white" transform="translate(0 0.510742)"/>
</clipPath>
</defs>
</svg>
