<svg width="35" height="35" viewBox="0 0 35 35" fill="none" xmlns="http://www.w3.org/2000/svg">
<g clip-path="url(#clip0_267_3220)">
<path d="M8.16675 0V11.6667M26.8334 0V11.6667M7.00008 17.5H14.0001M28.0001 17.5H21.0001M7.00008 24.5H14.0001M21.0001 24.5H28.0001M3.50008 5.83333H31.5001C32.1189 5.83333 32.7124 6.07917 33.15 6.51675C33.5876 6.95434 33.8334 7.54783 33.8334 8.16667V31.5C33.8334 32.1188 33.5876 32.7123 33.15 33.1499C32.7124 33.5875 32.1189 33.8333 31.5001 33.8333H3.50008C2.88124 33.8333 2.28775 33.5875 1.85017 33.1499C1.41258 32.7123 1.16675 32.1188 1.16675 31.5V8.16667C1.16675 7.54783 1.41258 6.95434 1.85017 6.51675C2.28775 6.07917 2.88124 5.83333 3.50008 5.83333Z" stroke="#ED12DF"/>
</g>
<defs>
<clipPath id="clip0_267_3220">
<rect width="35" height="35" fill="white"/>
</clipPath>
</defs>
</svg>
