<svg width="24" height="24" viewBox="0 0 24 24" fill="none" xmlns="http://www.w3.org/2000/svg">
<g clip-path="url(#clip0_267_3252)">
<path d="M5.60005 0V8M18.4001 0V8M4.80005 12H9.60005M19.2001 12H14.4001M4.80005 16.8H9.60005M14.4001 16.8H19.2001M2.40005 4H21.6001C22.0244 4 22.4314 4.16857 22.7314 4.46863C23.0315 4.76869 23.2001 5.17565 23.2001 5.6V21.6C23.2001 22.0243 23.0315 22.4313 22.7314 22.7314C22.4314 23.0314 22.0244 23.2 21.6001 23.2H2.40005C1.9757 23.2 1.56874 23.0314 1.26868 22.7314C0.96862 22.4313 0.800049 22.0243 0.800049 21.6V5.6C0.800049 5.17565 0.96862 4.76869 1.26868 4.46863C1.56874 4.16857 1.9757 4 2.40005 4Z" stroke="#306CFE"/>
</g>
<defs>
<clipPath id="clip0_267_3252">
<rect width="24" height="24" fill="white"/>
</clipPath>
</defs>
</svg>
