<svg width="35" height="35" viewBox="0 0 35 35" fill="none" xmlns="http://www.w3.org/2000/svg">
<path d="M18.7396 20.9272H22.1667M18.7396 14.073H22.1667M18.7396 17.5001H22.1667M23.9167 20.9272H27.3438M23.9167 14.073H27.3438M23.9167 17.5001H27.3438M11.0833 14.073H7.65625V20.9272M7.65625 17.5001H9.91667M12.6875 20.9272V14.073H14.9479C16.1875 14.073 17.2813 15.0938 17.2813 16.4063C17.2813 17.7188 16.2604 18.7397 14.9479 18.7397H12.6875M14.9479 18.6667L17.1354 20.9272" stroke="black" stroke-width="0.5" stroke-linecap="round" stroke-linejoin="round"/>
<path d="M28.0729 4.0105H6.9271C5.32294 4.0105 4.01044 5.323 4.01044 6.92716V28.073C4.01044 29.6772 5.32294 30.9897 6.9271 30.9897H28.0729C29.6771 30.9897 30.9896 29.6772 30.9896 28.073V6.92716C30.9896 5.323 29.6771 4.0105 28.0729 4.0105Z" stroke="black" stroke-width="0.5" stroke-linecap="round" stroke-linejoin="round"/>
</svg>
