<svg width="35" height="35" viewBox="0 0 35 35" fill="none" xmlns="http://www.w3.org/2000/svg">
<path fill-rule="evenodd" clip-rule="evenodd" d="M4.375 6.5625C4.375 5.98234 4.60547 5.42594 5.0157 5.0157C5.42594 4.60547 5.98234 4.375 6.5625 4.375H28.4375C29.0177 4.375 29.5741 4.60547 29.9843 5.0157C30.3945 5.42594 30.625 5.98234 30.625 6.5625V28.4375C30.625 29.0177 30.3945 29.5741 29.9843 29.9843C29.5741 30.3945 29.0177 30.625 28.4375 30.625H6.5625C5.98234 30.625 5.42594 30.3945 5.0157 29.9843C4.60547 29.5741 4.375 29.0177 4.375 28.4375V6.5625ZM13.8542 8.75H11.6667C11.2799 8.75 10.909 8.90365 10.6355 9.17714C10.362 9.45063 10.2083 9.82156 10.2083 10.2083V26.25C10.2083 26.6368 10.362 27.0077 10.6355 27.2812C10.909 27.5547 11.2799 27.7083 11.6667 27.7083H23.3333C23.7201 27.7083 24.091 27.5547 24.3645 27.2812C24.638 27.0077 24.7917 26.6368 24.7917 26.25V10.2083C24.7917 9.82156 24.638 9.45063 24.3645 9.17714C24.091 8.90365 23.7201 8.75 23.3333 8.75H21.1458C21.1458 8.36323 20.9922 7.99229 20.7187 7.7188C20.4452 7.44531 20.0743 7.29167 19.6875 7.29167H15.3125C14.9257 7.29167 14.5548 7.44531 14.2813 7.7188C14.0078 7.99229 13.8542 8.36323 13.8542 8.75ZM16.0883 25.2649L17.9061 20.4167H15.3125C15.1191 20.4167 14.9336 20.3398 14.7969 20.2031C14.6602 20.0664 14.5833 19.8809 14.5833 19.6875C14.5833 19.4941 14.6602 19.3086 14.7969 19.1719C14.9336 19.0352 15.1191 18.9583 15.3125 18.9583H22.8236C23.017 18.9583 23.2025 19.0352 23.3392 19.1719C23.476 19.3086 23.5528 19.4941 23.5528 19.6875C23.5528 19.8809 23.476 20.0664 23.3392 20.2031C23.2025 20.3398 23.017 20.4167 22.8236 20.4167H20.7397L22.5575 25.2649C22.5941 25.3551 22.6123 25.4518 22.6109 25.5492C22.6095 25.6465 22.5887 25.7427 22.5495 25.8318C22.5104 25.921 22.4538 26.0015 22.3831 26.0684C22.3124 26.1354 22.229 26.1875 22.1378 26.2217C22.0466 26.2559 21.9495 26.2715 21.8522 26.2675C21.7549 26.2636 21.6594 26.2402 21.5713 26.1987C21.4832 26.1572 21.4043 26.0985 21.3392 26.0261C21.2741 25.9536 21.2243 25.8688 21.1925 25.7768L20.2745 23.3304H18.3714L17.4533 25.7768C17.4216 25.8688 17.3717 25.9536 17.3066 26.0261C17.2416 26.0985 17.1627 26.1572 17.0746 26.1987C16.9864 26.2402 16.8909 26.2636 16.7936 26.2675C16.6963 26.2715 16.5992 26.2559 16.508 26.2217C16.4168 26.1875 16.3334 26.1354 16.2627 26.0684C16.192 26.0015 16.1354 25.921 16.0963 25.8318C16.0572 25.7427 16.0363 25.6465 16.035 25.5492C16.0336 25.4518 16.0517 25.3551 16.0883 25.2649ZM12.3958 14.0292H22.6042V12.5708H12.3958V14.0292ZM16.0417 17.0625H12.3958V15.6042H16.0417V17.0625ZM19.3229 18.2292C19.7097 18.2292 20.0806 18.0755 20.3541 17.802C20.6276 17.5285 20.7813 17.1576 20.7813 16.7708C20.7813 16.3841 20.6276 16.0131 20.3541 15.7396C20.0806 15.4661 19.7097 15.3125 19.3229 15.3125C18.9361 15.3125 18.5652 15.4661 18.2917 15.7396C18.0182 16.0131 17.8646 16.3841 17.8646 16.7708C17.8646 17.1576 18.0182 17.5285 18.2917 17.802C18.5652 18.0755 18.9361 18.2292 19.3229 18.2292ZM15.3125 8.75H19.6875V10.2083H15.3125V8.75Z" fill="black" fill-opacity="0.8"/>
</svg>
