<svg width="35" height="35" viewBox="0 0 35 35" fill="none" xmlns="http://www.w3.org/2000/svg">
<path d="M2.91797 29.1673V25.084C2.91797 24.2819 3.12457 23.5284 3.53776 22.8236C3.95095 22.1187 4.52214 21.584 5.2513 21.2194C6.49089 20.5875 7.88845 20.0527 9.44401 19.6152C10.9996 19.1777 12.7131 18.959 14.5846 18.959C15.3138 18.959 16.025 18.9954 16.7182 19.0684C17.4114 19.1413 18.0856 19.2507 18.7409 19.3965L16.1888 21.9486C15.9214 21.9 15.6604 21.8757 15.4057 21.8757H14.5846C12.8589 21.8757 11.3097 22.0822 9.93693 22.4954C8.56415 22.9086 7.43977 23.3583 6.5638 23.8444C6.34505 23.9659 6.16859 24.1361 6.03443 24.3548C5.90026 24.5736 5.83366 24.8166 5.83464 25.084V26.2507H14.9492L17.8659 29.1673H2.91797ZM22.6784 29.7507L17.6471 24.7194L19.6888 22.6777L22.6784 25.6673L30.043 18.3027L32.0846 20.3444L22.6784 29.7507ZM14.5846 17.5007C12.9805 17.5007 11.6072 16.9295 10.4648 15.7871C9.32248 14.6447 8.7513 13.2715 8.7513 11.6673C8.7513 10.0632 9.32248 8.68989 10.4648 7.54753C11.6072 6.40517 12.9805 5.83398 14.5846 5.83398C16.1888 5.83398 17.5621 6.40517 18.7044 7.54753C19.8468 8.68989 20.418 10.0632 20.418 11.6673C20.418 13.2715 19.8468 14.6447 18.7044 15.7871C17.5621 16.9295 16.1888 17.5007 14.5846 17.5007ZM14.5846 14.584C15.3867 14.584 16.0736 14.2986 16.6453 13.7279C17.2169 13.1572 17.5023 12.4704 17.5013 11.6673C17.5003 10.8643 17.215 10.1779 16.6453 9.60815C16.0755 9.03843 15.3887 8.7526 14.5846 8.75065C13.7806 8.74871 13.0942 9.03454 12.5255 9.60815C11.9567 10.1818 11.6709 10.8682 11.668 11.6673C11.6651 12.4665 11.9509 13.1534 12.5255 13.7279C13.1001 14.3025 13.7864 14.5879 14.5846 14.584Z" fill="#686060"/>
</svg>
