<svg width="35" height="36" viewBox="0 0 35 36" fill="none" xmlns="http://www.w3.org/2000/svg">
<path d="M5.83333 22.3023C5.83333 27.1396 9.74604 31.0523 14.5833 31.0523L13.3335 28.5527M29.1667 13.5523C29.1667 8.71504 25.254 4.80233 20.4167 4.80233L21.6665 7.30191M5.52563 13.6063C4.49313 14.1648 1.78938 15.3052 3.43583 16.7315C4.24083 17.4286 5.13771 17.9273 6.265 17.9273H12.6948C13.8206 17.9273 14.7175 17.4286 15.5225 16.7315C17.1704 15.3052 14.4652 14.1648 13.4327 13.6063C11.0133 12.2967 7.945 12.2967 5.52563 13.6063ZM12.7604 6.65879C12.7627 7.09185 12.6797 7.52112 12.516 7.92206C12.3523 8.323 12.1112 8.68775 11.8064 8.99546C11.5017 9.30317 11.1393 9.54781 10.74 9.71539C10.3407 9.88297 9.91223 9.97021 9.47917 9.97212C9.0461 9.97021 8.61766 9.88297 8.21833 9.71539C7.81901 9.54781 7.45662 9.30317 7.15189 8.99546C6.84716 8.68775 6.60606 8.323 6.44237 7.92206C6.27868 7.52112 6.19561 7.09185 6.19792 6.65879C6.19542 6.2256 6.27835 5.79618 6.44195 5.39507C6.60555 4.99396 6.84662 4.62904 7.15137 4.32117C7.45612 4.0133 7.81857 3.76854 8.218 3.60086C8.61742 3.43319 9.04598 3.3459 9.47917 3.34399C9.91235 3.3459 10.3409 3.43319 10.7403 3.60086C11.1398 3.76854 11.5022 4.0133 11.807 4.32117C12.1117 4.62904 12.3528 4.99396 12.5164 5.39507C12.68 5.79618 12.7629 6.2256 12.7604 6.65879ZM21.5673 28.1896C20.5348 28.7482 17.831 29.8886 19.4775 31.3148C20.2825 32.0119 21.1794 32.5107 22.3067 32.5107H28.7365C29.8623 32.5107 30.7592 32.0119 31.5642 31.3148C33.2121 29.8886 30.5069 28.7482 29.4744 28.1896C27.055 26.88 23.9867 26.88 21.5673 28.1896ZM28.8021 21.2421C28.8046 21.6753 28.7217 22.1047 28.5581 22.5058C28.3945 22.9069 28.1534 23.2719 27.8486 23.5797C27.5439 23.8876 27.1814 24.1324 26.782 24.3C26.3826 24.4677 25.954 24.555 25.5208 24.5569C25.0876 24.555 24.6591 24.4677 24.2597 24.3C23.8602 24.1324 23.4978 23.8876 23.193 23.5797C22.8883 23.2719 22.6472 22.9069 22.4836 22.5058C22.32 22.1047 22.2371 21.6753 22.2396 21.2421C22.2371 20.8089 22.32 20.3795 22.4836 19.9784C22.6472 19.5773 22.8883 19.2124 23.193 18.9045C23.4978 18.5966 23.8602 18.3519 24.2597 18.1842C24.6591 18.0165 25.0876 17.9292 25.5208 17.9273C25.954 17.9292 26.3826 18.0165 26.782 18.1842C27.1814 18.3519 27.5439 18.5966 27.8486 18.9045C28.1534 19.2124 28.3945 19.5773 28.5581 19.9784C28.7217 20.3795 28.8046 20.8089 28.8021 21.2421Z" stroke="black" stroke-width="1.5" stroke-linecap="round" stroke-linejoin="round"/>
</svg>
