<svg width="35" height="35" viewBox="0 0 35 35" fill="none" xmlns="http://www.w3.org/2000/svg">
<g clip-path="url(#clip0_686_7134)">
<path d="M17.5 0C27.1652 0 35 7.83475 35 17.5C35 27.1652 27.1652 35 17.5 35C7.83475 35 0 27.1652 0 17.5C0 7.83475 7.83475 0 17.5 0ZM17.5 2.44125C13.5062 2.44125 9.67592 4.02779 6.85186 6.85186C4.02779 9.67592 2.44125 13.5062 2.44125 17.5C2.44125 21.4938 4.02779 25.3241 6.85186 28.1481C9.67592 30.9722 13.5062 32.5588 17.5 32.5588C21.4938 32.5588 25.3241 30.9722 28.1481 28.1481C30.9722 25.3241 32.5588 21.4938 32.5588 17.5C32.5588 13.5062 30.9722 9.67592 28.1481 6.85186C25.3241 4.02779 21.4938 2.44125 17.5 2.44125ZM17.2463 12.6175C17.92 12.6175 18.466 13.1652 18.466 13.839V27.0655C18.454 27.3812 18.3202 27.68 18.0926 27.8992C17.865 28.1183 17.5613 28.2408 17.2454 28.2408C16.9294 28.2408 16.6257 28.1183 16.3981 27.8992C16.1705 27.68 16.0367 27.3812 16.0247 27.0655V13.8372C16.0247 13.1635 16.5707 12.6175 17.2463 12.6175ZM17.2952 7.73325C17.7269 7.73325 18.1409 7.90472 18.4461 8.20993C18.7513 8.51515 18.9227 8.92911 18.9227 9.36075C18.9227 9.79239 18.7513 10.2064 18.4461 10.5116C18.1409 10.8168 17.7269 10.9882 17.2952 10.9882C16.8636 10.9882 16.4496 10.8168 16.1444 10.5116C15.8392 10.2064 15.6678 9.79239 15.6678 9.36075C15.6678 8.92911 15.8392 8.51515 16.1444 8.20993C16.4496 7.90472 16.8636 7.73325 17.2952 7.73325Z" fill="#686060"/>
</g>
<defs>
<clipPath id="clip0_686_7134">
<rect width="35" height="35" fill="white"/>
</clipPath>
</defs>
</svg>
