<svg width="35" height="35" viewBox="0 0 35 35" fill="none" xmlns="http://www.w3.org/2000/svg">
<path d="M29.1667 5.83337C29.9402 5.83337 30.6821 6.14066 31.2291 6.68765C31.776 7.23463 32.0833 7.97649 32.0833 8.75004V23.3334C32.0833 24.9521 30.7854 26.25 29.1667 26.25H35V29.1667H0V26.25H5.83333C5.05979 26.25 4.31792 25.9427 3.77094 25.3958C3.22396 24.8488 2.91667 24.1069 2.91667 23.3334V8.75004C2.91667 7.13129 4.21458 5.83337 5.83333 5.83337H29.1667ZM29.1667 8.75004H5.83333V23.3334H29.1667V8.75004ZM17.5 17.5C20.7229 17.5 23.3333 18.8125 23.3333 20.4167V21.875H11.6667V20.4167C11.6667 18.8125 14.2771 17.5 17.5 17.5ZM17.5 10.2084C18.2735 10.2084 19.0154 10.5157 19.5624 11.0626C20.1094 11.6096 20.4167 12.3515 20.4167 13.125C20.4167 13.8986 20.1094 14.6405 19.5624 15.1874C19.0154 15.7344 18.2735 16.0417 17.5 16.0417C15.8813 16.0417 14.5833 14.7438 14.5833 13.125C14.5833 11.5063 15.8958 10.2084 17.5 10.2084Z" fill="#2F80EC"/>
</svg>
