<svg width="36" height="35" viewBox="0 0 36 35" fill="none" xmlns="http://www.w3.org/2000/svg">
<path d="M14.7188 31.7188H8.15625V3.28125H27.8438V15.3125M11.4375 9.84375H24.5625M11.4375 14.2188H20.1875M23.4688 20.7812V25.1562L26.75 28.4375M30.0312 25.1562C30.0312 26.8967 29.3398 28.5659 28.1091 29.7966C26.8784 31.0273 25.2092 31.7188 23.4688 31.7188C21.7283 31.7188 20.0591 31.0273 18.8284 29.7966C17.5977 28.5659 16.9062 26.8967 16.9062 25.1562C16.9062 23.4158 17.5977 21.7466 18.8284 20.5159C20.0591 19.2852 21.7283 18.5938 23.4688 18.5938C25.2092 18.5938 26.8784 19.2852 28.1091 20.5159C29.3398 21.7466 30.0312 23.4158 30.0312 25.1562Z" stroke="black" stroke-linejoin="round"/>
</svg>
