<svg width="35" height="35" viewBox="0 0 35 35" fill="none" xmlns="http://www.w3.org/2000/svg">
<path d="M17.5013 12.3958C16.9211 12.3958 16.3647 12.6263 15.9545 13.0365C15.5443 13.4468 15.3138 14.0032 15.3138 14.5833V14.7394C15.3138 14.9328 15.237 15.1182 15.1002 15.255C14.9635 15.3917 14.778 15.4685 14.5846 15.4685C14.3912 15.4685 14.2058 15.3917 14.069 15.255C13.9323 15.1182 13.8555 14.9328 13.8555 14.7394V14.5833C13.8555 13.6164 14.2396 12.6891 14.9233 12.0053C15.607 11.3216 16.5344 10.9375 17.5013 10.9375H17.6705C18.3805 10.9377 19.0735 11.1554 19.6562 11.5611C20.2389 11.9669 20.6834 12.5414 20.9299 13.2073C21.1764 13.8732 21.213 14.5987 21.035 15.2861C20.8569 15.9734 20.4726 16.5898 19.9338 17.0523L18.8094 18.0163C18.6281 18.1721 18.4825 18.3652 18.3826 18.5823C18.2827 18.7995 18.2308 19.0357 18.2305 19.2748V20.0521C18.2305 20.2455 18.1536 20.4309 18.0169 20.5677C17.8802 20.7044 17.6947 20.7812 17.5013 20.7812C17.3079 20.7812 17.1224 20.7044 16.9857 20.5677C16.849 20.4309 16.7721 20.2455 16.7721 20.0521V19.2748C16.7721 18.3648 17.1703 17.5015 17.8601 16.9094L18.983 15.9469C19.2961 15.6786 19.5196 15.3208 19.6233 14.9217C19.727 14.5225 19.7059 14.1012 19.5629 13.7144C19.42 13.3276 19.162 12.9939 18.8236 12.7582C18.4853 12.5224 18.0828 12.396 17.6705 12.3958H17.5013ZM17.5013 24.0625C17.7914 24.0625 18.0696 23.9473 18.2747 23.7421C18.4798 23.537 18.5951 23.2588 18.5951 22.9688C18.5951 22.6787 18.4798 22.4005 18.2747 22.1954C18.0696 21.9902 17.7914 21.875 17.5013 21.875C17.2112 21.875 16.933 21.9902 16.7279 22.1954C16.5228 22.4005 16.4076 22.6787 16.4076 22.9688C16.4076 23.2588 16.5228 23.537 16.7279 23.7421C16.933 23.9473 17.2112 24.0625 17.5013 24.0625Z" fill="black"/>
<path d="M5.10547 17.4993C5.10547 14.2118 6.41145 11.0588 8.73612 8.73417C11.0608 6.4095 14.2137 5.10352 17.5013 5.10352C20.7889 5.10352 23.9418 6.4095 26.2665 8.73417C28.5912 11.0588 29.8971 14.2118 29.8971 17.4993C29.8971 20.7869 28.5912 23.9399 26.2665 26.2645C23.9418 28.5892 20.7889 29.8952 17.5013 29.8952C14.2137 29.8952 11.0608 28.5892 8.73612 26.2645C6.41145 23.9399 5.10547 20.7869 5.10547 17.4993ZM17.5013 6.56185C14.6005 6.56185 11.8185 7.71419 9.76732 9.76537C7.71614 11.8165 6.5638 14.5985 6.5638 17.4993C6.5638 20.4002 7.71614 23.1821 9.76732 25.2333C11.8185 27.2845 14.6005 28.4368 17.5013 28.4368C20.4021 28.4368 23.1841 27.2845 25.2353 25.2333C27.2865 23.1821 28.4388 20.4002 28.4388 17.4993C28.4388 14.5985 27.2865 11.8165 25.2353 9.76537C23.1841 7.71419 20.4021 6.56185 17.5013 6.56185Z" fill="black"/>
</svg>
