<svg width="35" height="35" viewBox="0 0 35 35" fill="none" xmlns="http://www.w3.org/2000/svg">
<path d="M20.688 4.01477V9.25894C20.688 9.96915 20.9709 10.6516 21.4755 11.1548C21.9814 11.6584 22.6662 11.9411 23.3801 11.9408H29.3957" stroke="#F2884F" stroke-width="1.5" stroke-linecap="round" stroke-linejoin="round"/>
<path d="M11.1519 11.1518H15.9133M11.1519 17.5H23.8481M11.1519 23.8481H23.8481M29.5313 12.495V24.99C29.5023 25.8072 29.3119 26.6107 28.971 27.3541C28.6301 28.0975 28.1455 28.766 27.545 29.3212C26.9441 29.879 26.2391 30.3129 25.4704 30.5982C24.7017 30.8834 23.8843 31.0144 23.065 30.9837H11.9962C11.1719 31.0214 10.3482 30.896 9.57246 30.6147C8.79669 30.3334 8.08405 29.9018 7.47542 29.3445C6.86914 28.7878 6.37954 28.1162 6.03506 27.3686C5.69058 26.6211 5.49808 25.8125 5.46875 24.99V10.007C5.4977 9.18976 5.68812 8.38628 6.02901 7.64291C6.36991 6.89955 6.85455 6.231 7.455 5.67579C8.05595 5.11801 8.76091 4.6841 9.5296 4.39884C10.2983 4.11359 11.1157 3.98257 11.935 4.01329H20.2679C21.54 4.0088 22.7679 4.47947 23.711 5.33309L28.0277 9.30267C28.4883 9.69945 28.8603 10.1888 29.1193 10.7388C29.3784 11.2888 29.5187 11.8871 29.5313 12.495Z" stroke="#F2884F" stroke-width="1.5" stroke-linecap="round" stroke-linejoin="round"/>
</svg>
