<svg width="24" height="24" viewBox="0 0 24 24" fill="none" xmlns="http://www.w3.org/2000/svg">
<g clip-path="url(#clip0_267_3254)">
<path d="M16.1966 15.1511H18.2584C18.3355 15.1511 18.4094 15.1205 18.4639 15.066C18.5184 15.0115 18.549 14.9376 18.549 14.8605C18.549 14.7834 18.5184 14.7095 18.4639 14.655C18.4094 14.6005 18.3355 14.5699 18.2584 14.5699H16.1966C16.1196 14.5699 16.0456 14.6005 15.9911 14.655C15.9366 14.7095 15.906 14.7834 15.906 14.8605C15.906 14.9376 15.9366 15.0115 15.9911 15.066C16.0456 15.1205 16.1196 15.1511 16.1966 15.1511ZM20.9006 6.282H13.5833V12.03H20.9006V6.282ZM20.3696 11.5425H14.1083V6.77212H20.3696V11.5425ZM8.53914 6.47325H7.35001V7.66237H6.16089V8.8515H7.35001V10.0406H8.53914V8.8515H9.72789V7.66237H8.53914V6.47325Z" fill="#306CFE"/>
<path d="M16.1966 8.37112H18.2584C18.3355 8.37112 18.4094 8.3405 18.4639 8.286C18.5184 8.2315 18.549 8.15757 18.549 8.0805C18.549 8.00342 18.5184 7.9295 18.4639 7.87499C18.4094 7.82049 18.3355 7.78987 18.2584 7.78987H16.1966C16.1196 7.78987 16.0456 7.82049 15.9911 7.87499C15.9366 7.9295 15.906 8.00342 15.906 8.0805C15.906 8.15757 15.9366 8.2315 15.9911 8.286C16.0456 8.3405 16.1196 8.37112 16.1966 8.37112Z" fill="#306CFE"/>
<path d="M20.8546 0.205124H3.39085C1.67973 0.205124 0.287354 1.5975 0.287354 3.30937V20.7724C0.287354 22.4843 1.67973 23.8766 3.39085 23.8766H20.8546C22.5661 23.8766 23.9585 22.4846 23.9585 20.7724V3.30937C23.9585 1.59787 22.5657 0.205124 20.8546 0.205124ZM3.4696 4.26037V8.16637H2.88498C2.85867 8.16642 2.83261 8.16128 2.80829 8.15123C2.78397 8.14119 2.76187 8.12644 2.74327 8.10783C2.72467 8.08923 2.70992 8.06713 2.69987 8.04281C2.68982 8.0185 2.68468 7.99244 2.68473 7.96612V2.92575C2.68473 2.75512 2.81185 2.61637 2.9866 2.61637H5.56923C5.74323 2.61637 5.8711 2.75475 5.8711 2.92537V3.22125H9.8641C9.9751 3.22125 10.0644 3.31087 10.0644 3.42075V4.55437H6.65598V4.25775C6.65598 4.0875 6.52885 3.94912 6.35335 3.94912H3.77223C3.5971 3.94912 3.46998 4.08975 3.46998 4.26075L3.4696 4.26037ZM11.4339 10.7314H4.45548C4.42919 10.7316 4.40312 10.7266 4.37879 10.7166C4.35445 10.7067 4.33233 10.692 4.3137 10.6734C4.29508 10.6549 4.28032 10.6328 4.27028 10.6085C4.26025 10.5842 4.25513 10.5582 4.25523 10.5319V5.4915C4.25523 5.32087 4.38235 5.18212 4.55673 5.18212H7.1386C7.31335 5.18212 7.44123 5.3205 7.44123 5.49075V5.78662H11.4339C11.5449 5.78662 11.6341 5.87625 11.6341 5.98612V10.5315C11.6342 10.5578 11.6291 10.5839 11.619 10.6082C11.609 10.6325 11.5942 10.6546 11.5755 10.6732C11.5568 10.6918 11.5347 10.7064 11.5103 10.7163C11.4859 10.7263 11.4598 10.7312 11.4335 10.731L11.4339 10.7314ZM21.4254 20.9636H13.0606V5.7435H21.4254V20.9636Z" fill="#306CFE"/>
<path d="M20.9006 13.0616H13.5833V18.8104H20.9006V13.0616ZM20.3734 18.3199H14.1128V13.5506H20.3734V18.3199Z" fill="#306CFE"/>
</g>
<defs>
<clipPath id="clip0_267_3254">
<rect width="24" height="24" fill="white"/>
</clipPath>
</defs>
</svg>
