<svg width="35" height="35" viewBox="0 0 35 35" fill="none" xmlns="http://www.w3.org/2000/svg">
<path d="M2.91675 5.10413H32.0834M2.91675 16.7708H10.9376M2.91675 28.4375H10.9376" stroke="#1FC225" stroke-width="2" stroke-linecap="round"/>
<path d="M22.9689 24.7916C24.6127 24.7916 26.1892 24.1386 27.3515 22.9763C28.5138 21.8139 29.1668 20.2375 29.1668 18.5937C29.1668 16.9499 28.5138 15.3734 27.3515 14.2111C26.1892 13.0487 24.6127 12.3958 22.9689 12.3958C21.3251 12.3958 19.7487 13.0487 18.5863 14.2111C17.424 15.3734 16.771 16.9499 16.771 18.5937C16.771 20.2375 17.424 21.8139 18.5863 22.9763C19.7487 24.1386 21.3251 24.7916 22.9689 24.7916Z" stroke="#1FC225" stroke-width="2"/>
<path d="M26.9792 23.3333L32.0834 28.4739" stroke="#1FC225" stroke-width="2" stroke-linecap="round"/>
</svg>
