<svg width="36" height="36" viewBox="0 0 36 36" fill="none" xmlns="http://www.w3.org/2000/svg">
<path d="M22.6679 4.81504L22.8089 4.93954L31.0589 13.1895C31.3117 13.4438 31.4652 13.7801 31.4914 14.1377C31.5176 14.4953 31.4148 14.8505 31.2017 15.1389C30.9886 15.4272 30.6793 15.6297 30.3297 15.7096C29.9802 15.7896 29.6136 15.7416 29.2964 15.5745L24.5384 20.331L22.4024 26.0265C22.3461 26.1768 22.2661 26.3171 22.1654 26.442L22.0604 26.562L19.8104 28.812C19.5519 29.0701 19.2081 29.225 18.8436 29.2476C18.4791 29.2702 18.1188 29.1591 17.8304 28.935L17.6879 28.8105L13.4984 24.6225L7.80886 30.3105C7.53892 30.5796 7.17671 30.7358 6.79579 30.7474C6.41486 30.759 6.04379 30.6252 5.75794 30.3732C5.4721 30.1211 5.2929 29.7697 5.25676 29.3903C5.22062 29.0109 5.33024 28.632 5.56336 28.3305L5.68786 28.1895L11.3759 22.5L7.18786 18.3105C6.9296 18.0523 6.77445 17.7086 6.75153 17.3441C6.72861 16.9795 6.83949 16.6191 7.06336 16.3305L7.18786 16.1895L9.43786 13.9395C9.55104 13.826 9.6817 13.7313 9.82486 13.659L9.97186 13.596L15.6659 11.4585L20.4224 6.70354C20.2602 6.40029 20.2071 6.05051 20.272 5.7128C20.337 5.37508 20.516 5.06994 20.7791 4.84849C21.0422 4.62703 21.3735 4.50271 21.7173 4.49635C22.0611 4.48999 22.3967 4.60347 22.6679 4.81504Z" fill="#FF0000"/>
</svg>
